# xmcd
#
# Track frame offsets:
#	150
#	14642
#	25045
#	36027
#	49937
#	58782
#	70107
#	82242
#	100130
#	118207
#
# Disc length: 1770
#
# Revision: 1
# Processed by: cddbd v1.5.1PL0 Copyright (c) Steve Scherf et al.
# Submitted via: CDex 1.51
# Normalized: r0:TDELIM( - )
#
DISCID=8806e80a
DTITLE=Various Artist - Country Christmas
DYEAR=2001
DGENRE=Country
TTITLE0=Marty Robbins - O Little Town of Bethlehem
TTITLE1=Away In A Manger - Tanya Tucker
TTITLE2=George Jones - O Come All Ye Faithful
TTITLE3=Jody Miller - Cherry Three Carol
TTITLE4=Charlie Rich - O Holy Night
TTITLE5=Chuck Wagon Gang - Star of the East
TTITLE6=Tammy Wynette - Gentle Shepherd
TTITLE7=Ray Price - Little Drummer Boy
TTITLE8=Ed Bruce - Sweet Little Jesus Boy
TTITLE9=Slim Whitman - Angels We Have Heard On High
EXTD=YEAR: 2001
EXTT0=
EXTT1=
EXTT2=
EXTT3=
EXTT4=
EXTT5=
EXTT6=
EXTT7=
EXTT8=
EXTT9=
PLAYORDER=
